<?xml version="1.0" encoding="utf-8"?>
<!-- Generator: Adobe Illustrator 21.0.0, SVG Export Plug-In . SVG Version: 6.00 Build 0)  -->
<svg version="1.1" id="Ebene_1" xmlns="http://www.w3.org/2000/svg" xmlns:xlink="http://www.w3.org/1999/xlink" x="0px" y="0px"
	 viewBox="0 0 25.6 25.6" style="enable-background:new 0 0 25.6 25.6;" xml:space="preserve">
<g>
	<path d="M23.6,6c-0.1-0.1-0.2-0.2-0.3-0.2c-0.1,0-0.3,0-0.4,0.1c-0.1,0.1-0.2,0.2-0.2,0.3c0,0.1,0,0.3,0.1,0.4
		c2.9,4.6,2.3,10.6-1.6,14.5c-4.6,4.6-12,4.6-16.5,0C0,16.5,0,9.1,4.5,4.5C8.4,0.7,14.3,0,19,2.9C19.2,3,19.6,3,19.7,2.7
		c0.2-0.3,0.1-0.6-0.2-0.8c-2.1-1.3-4.4-2-6.8-2c-3.3,0-6.5,1.3-9,3.8c-5,5-5,13.1,0,18.1c2.4,2.4,5.6,3.7,9,3.7
		c3.4,0,6.6-1.3,9-3.7C26.1,17.6,26.8,11.1,23.6,6z"/>
	<path d="M11,17.5c0.2,0,0.3-0.1,0.4-0.2L22.2,4.5c0.2-0.2,0.2-0.6-0.1-0.8c-0.2-0.2-0.6-0.1-0.8,0.1L10.9,16.1l-3.9-3.9
		c-0.1-0.1-0.2-0.2-0.4-0.2s-0.3,0.1-0.4,0.2c-0.1,0.1-0.2,0.2-0.2,0.4s0.1,0.3,0.2,0.4l4.3,4.3C10.7,17.5,10.8,17.5,11,17.5z"/>
</g>
</svg>
