<?xml version="1.0" encoding="utf-8"?>
<!-- Generator: Adobe Illustrator 21.0.0, SVG Export Plug-In . SVG Version: 6.00 Build 0)  -->
<svg version="1.1" id="Ebene_1" xmlns="http://www.w3.org/2000/svg" xmlns:xlink="http://www.w3.org/1999/xlink" x="0px" y="0px"
	 viewBox="0 0 25.6 25.6" style="enable-background:new 0 0 25.6 25.6;" xml:space="preserve">
<g>
	<path d="M25.6,12.8c0-3.4-1.3-6.6-3.7-9c-0.7-0.7-1.4-1.3-2.3-1.8l0,0c-0.3-0.2-0.6-0.3-0.8-0.5l-0.2-0.1C18.3,1.3,18,1.1,17.8,1
		l-0.3-0.1c-0.2-0.1-0.4-0.1-0.6-0.2c-0.2-0.1-0.4-0.1-0.5-0.2L16,0.4c-0.2-0.1-0.5-0.1-0.7-0.2l0,0l-0.1,0C14.4,0.1,13.6,0,12.8,0
		c-3.3,0-6.6,1.3-9,3.8c-1.3,1.3-2.3,2.9-3,4.7l0,0.1C0.7,8.8,0.6,8.9,0.5,9.1L0.5,9.3c-0.1,0.3-0.2,0.7-0.2,1
		c-0.5,2.5-0.2,4.9,0.7,7.2L1,17.9c0.1,0.2,0.2,0.4,0.3,0.7c0.1,0.2,0.2,0.4,0.3,0.5c0.1,0.1,0.2,0.3,0.2,0.4
		c0.1,0.2,0.3,0.4,0.4,0.7l0.1,0.2c0.4,0.6,0.9,1.1,1.3,1.6c2.4,2.4,5.6,3.7,9,3.7c1.2,0,2.5-0.2,3.7-0.5c2-0.6,3.9-1.7,5.4-3.2
		C24.3,19.4,25.6,16.2,25.6,12.8z M12.8,24.5c-1.8,0-3.7-0.4-5.4-1.3c-1-0.5-2-1.2-2.8-2.1c-1.9-1.9-3-4.3-3.4-6.9
		c0-0.3,0-0.5-0.1-0.8l0-0.3c0-0.2,0-0.5,0-0.7l0-0.3c0-0.3,0-0.5,0.1-0.8l0-0.1C1.5,9.5,2,8,2.9,6.6c0.5-0.8,1-1.5,1.6-2.1h0
		c0.6-0.6,1.3-1.1,2-1.6l0.1-0.1c1.6-1,3.5-1.6,5.5-1.8c0.3,0,0.6,0,0.9,0l0.2,0c0.2,0,0.5,0,0.7,0.1l0.2,0c0.2,0,0.4,0.1,0.7,0.1
		l0.3,0.1c0.2,0,0.4,0.1,0.6,0.1l0.3,0.1c0.2,0.1,0.4,0.1,0.6,0.2l0.1,0c0.1,0,0.2,0.1,0.2,0.1c0.2,0.1,0.4,0.2,0.6,0.3l0.3,0.1
		c0.2,0.1,0.4,0.2,0.6,0.3l0.2,0.1c0.8,0.5,1.6,1.1,2.3,1.8c0.6,0.6,1.1,1.3,1.6,2c0.4,0.7,0.8,1.4,1.1,2.2c0.1,0.3,0.2,0.4,0.2,0.6
		L24,9.7c0.1,0.3,0.1,0.5,0.2,0.8l0,0.1c0.1,0.4,0.1,0.7,0.1,1l0,0.2c0,0.3,0,0.6,0,0.9l0,0.2c0,0.3,0,0.6,0,0.9l0,0.2
		c0,0.3-0.1,0.5-0.1,0.8c-0.4,2.4-1.5,4.6-3.3,6.3C18.8,23.3,15.8,24.5,12.8,24.5z"/>
</g>
</svg>
